<?xml version="1.0" encoding="UTF-8"?>
<svg version="1.1" xmlns="http://www.w3.org/2000/svg" width="223" height="73">
<path d="M0 0 C1.03640625 -0.04125 2.0728125 -0.0825 3.140625 -0.125 C9.35434641 -0.18840532 12.97182106 0.47592917 17.53417969 4.81445312 C18.89122965 6.69579307 19.34249632 8.23226046 19.75 10.5 C20.20375 9.860625 20.6575 9.22125 21.125 8.5625 C24.99688197 5.52030702 28.8934162 5.16060479 33.75 5.5 C36.60606262 7.31116166 37.36943819 8.66752104 38.75 11.6875 C38.75 18.75681995 34.39188337 24.56188496 29.765625 29.5703125 C26.33197286 32.85756861 22.59345671 35.71109717 18.75 38.5 C19.08 40.81 19.41 43.12 19.75 45.5 C24.9138923 44.56825422 27.47477531 41.41299664 30.75 37.5 C32.13171252 35.47687355 33.48473047 33.43393133 34.8125 31.375 C41.26729163 21.47600093 41.26729163 21.47600093 46.6875 19.95703125 C50.81077365 19.29324667 54.72564403 19.28333424 58.75 20.5 C60.99330842 22.79092582 61.70604924 24.08041673 62.04296875 27.296875 C62.00816406 28.27140625 61.97335938 29.2459375 61.9375 30.25 C61.89689453 31.72726563 61.89689453 31.72726563 61.85546875 33.234375 C61.82066406 33.98203125 61.78585938 34.7296875 61.75 35.5 C62.183125 34.8503125 62.61625 34.200625 63.0625 33.53125 C64.75 31.5 64.75 31.5 67.75 31 C70.75 31.5 70.75 31.5 72.4375 33.53125 C72.870625 34.1809375 73.30375 34.830625 73.75 35.5 C69.39745238 42.67452904 64.71885479 49.16420032 56.75 52.5 C54.4170134 52.54022391 52.08293334 52.54320247 49.75 52.5 C48.76 52.995 48.76 52.995 47.75 53.5 C45.81539059 53.6228777 43.87597096 53.67554888 41.9375 53.6875 C40.38095703 53.70876953 40.38095703 53.70876953 38.79296875 53.73046875 C35.75 53.5 35.75 53.5 33.02734375 52.3984375 C32.27582031 52.10195313 31.52429688 51.80546875 30.75 51.5 C29.88375 51.974375 29.0175 52.44875 28.125 52.9375 C23.22560983 55.20573619 18.93492549 54.81004206 13.75 53.5 C10.37882312 50.93790557 9.08010838 49.49032514 7.75 45.5 C6.67450346 34.74503463 10.86302423 23.43948173 16.75 14.5 C15.63625 14.809375 15.63625 14.809375 14.5 15.125 C11.75 15.5 11.75 15.5 9.5 14.875 C7.12399228 13.00813679 7.19754753 11.40905892 6.75 8.5 C3.98547967 7.11773984 1.7038637 7.40474613 -1.375 7.4375 C-2.47070312 7.44652344 -3.56640625 7.45554687 -4.6953125 7.46484375 C-5.95988281 7.48224609 -5.95988281 7.48224609 -7.25 7.5 C-8.06604999 9.4151579 -8.87770632 11.33218834 -9.6875 13.25 C-10.36619141 14.85101562 -10.36619141 14.85101562 -11.05859375 16.484375 C-11.98979553 18.8413841 -12.7284072 21.02992835 -13.25 23.5 C-12.26 23.17 -11.27 22.84 -10.25 22.5 C-7.91700175 22.46045766 -5.58291811 22.45598268 -3.25 22.5 C-2.125 27.25 -2.125 27.25 -3.25 29.5 C-5.35221693 29.59968672 -7.45792604 29.62968203 -9.5625 29.625 C-14.06195691 29.75294876 -14.06195691 29.75294876 -17.7890625 31.8828125 C-18.82954976 34.04521647 -19.52276486 36.2119536 -20.25 38.5 C-21.28954825 40.82290808 -22.35339732 43.13504829 -23.4375 45.4375 C-23.94667969 46.56027344 -24.45585938 47.68304688 -24.98046875 48.83984375 C-26.25 51.5 -26.25 51.5 -27.25 52.5 C-31.34789669 52.12056512 -33.78958935 51.80694043 -37.25 49.5 C-37.806875 49.8196875 -38.36375 50.139375 -38.9375 50.46875 C-42.19927065 51.9233234 -45.28247487 51.94100457 -48.8125 52.15625 C-51.2620168 52.36486484 -51.2620168 52.36486484 -53.27734375 53.546875 C-55.71525687 54.72479738 -57.14826609 54.59260876 -59.8125 54.25 C-60.57691406 54.16234375 -61.34132813 54.0746875 -62.12890625 53.984375 C-64.25 53.5 -64.25 53.5 -67.25 51.5 C-68.054375 52.015625 -68.85875 52.53125 -69.6875 53.0625 C-74.24568614 54.90176809 -77.54534364 54.77659556 -82.25 53.5 C-84.8125 52 -84.8125 52 -86.25 49.5 C-88.09070604 41.66478225 -84.15559295 36.00932159 -80.25 29.5 C-80.25 29.17 -80.25 28.84 -80.25 28.5 C-80.75789063 29.2940625 -81.26578125 30.088125 -81.7890625 30.90625 C-82.47742188 31.9271875 -83.16578125 32.948125 -83.875 34 C-84.54789063 35.0209375 -85.22078125 36.041875 -85.9140625 37.09375 C-88.25 39.5 -88.25 39.5 -91.375 39.91796875 C-94.25 39.5 -94.25 39.5 -96.625 38.3125 C-100.00877696 37.26514047 -101.61170569 38.32890485 -104.73828125 39.734375 C-108.00635777 40.73055385 -110.96529173 40.57687179 -114.375 40.5625 C-117.99505428 40.60287397 -117.99505428 40.60287397 -121.25 41.5 C-123.44820104 43.94008803 -124.64134456 46.2659729 -126.01953125 49.234375 C-127.25 51.5 -127.25 51.5 -130.4375 52.75 C-133.25 52.5 -133.25 52.5 -136.25 50.5 C-135.65895235 45.65340923 -134.27055843 41.89251833 -132.25 37.5 C-133.9 36.18 -135.55 34.86 -137.25 33.5 C-136.92 32.18 -136.59 30.86 -136.25 29.5 C-133.096632 28.79925156 -130.52275026 28.5 -127.25 28.5 C-126.74632243 27.04293274 -126.24717444 25.58429904 -125.75 24.125 C-125.4715625 23.31289063 -125.193125 22.50078125 -124.90625 21.6640625 C-124.15326695 19.55790758 -124.15326695 19.55790758 -124.25 17.5 C-124.61351562 18.0053125 -124.97703125 18.510625 -125.3515625 19.03125 C-129.47789943 24.36374696 -129.47789943 24.36374696 -133.4375 25.0625 C-136.25 24.5 -136.25 24.5 -139.25 22.5 C-136.57897343 14.59821305 -130.18502793 9.18716951 -122.875 5.5 C-118.00548471 3.27393587 -113.789399 2.25136712 -108.4375 1.8125 C-107.23480469 1.70550781 -106.03210938 1.59851563 -104.79296875 1.48828125 C-97.9414643 1.51094334 -94.02574182 3.94133736 -89.25 8.5 C-86.44994173 12.31826128 -87.25 14.14734681 -87.25 19.5 C-79.66 19.5 -72.07 19.5 -64.25 19.5 C-65.05706555 23.53532775 -65.56671117 25.45617581 -67.5 28.8203125 C-68.16515625 29.99400391 -68.16515625 29.99400391 -68.84375 31.19140625 C-69.3078125 31.99449219 -69.771875 32.79757813 -70.25 33.625 C-71.16888799 35.23050152 -72.08564837 36.83722314 -73 38.4453125 C-73.40734375 39.15187988 -73.8146875 39.85844727 -74.234375 40.58642578 C-75.38290515 42.62300284 -75.38290515 42.62300284 -76.25 45.5 C-71.36953843 40.98203648 -67.96847288 35.84599405 -64.35546875 30.29492188 C-61.40295709 25.86615438 -58.53605855 21.85974837 -53.4375 19.75 C-44.42073171 18.7195122 -44.42073171 18.7195122 -40.25 21.5 C-37.53640978 25.57038533 -37.8605254 27.67051495 -38.25 32.5 C-38.25 33.49 -38.25 34.48 -38.25 35.5 C-37.610625 34.84 -36.97125 34.18 -36.3125 33.5 C-34.25 31.5 -34.25 31.5 -33.25 31.5 C-33.58 31.17 -33.91 30.84 -34.25 30.5 C-34.29063832 28.83382885 -34.292721 27.16611905 -34.25 25.5 C-33.65832031 25.50644531 -33.06664063 25.51289062 -32.45703125 25.51953125 C-29.58693916 25.27138299 -27.78146297 24.91812725 -25.25 23.5 C-22.91065512 19.36074821 -21.52989101 15.06644532 -20.25 10.5 C-24.21 11.16 -28.17 11.82 -32.25 12.5 C-34.25 9.5 -34.25 9.5 -34.25 6.5 C-32.65066393 5.86274037 -31.04511868 5.24106646 -29.4375 4.625 C-28.54417969 4.27695313 -27.65085937 3.92890625 -26.73046875 3.5703125 C-17.93372963 0.86514245 -9.16779504 0.09260399 0 0 Z M-109.25 8.5 C-110.7614798 12.07859815 -112.25715751 15.66359161 -113.75 19.25 C-114.17925781 20.26578125 -114.60851562 21.2815625 -115.05078125 22.328125 C-115.45683594 23.3078125 -115.86289063 24.2875 -116.28125 25.296875 C-116.65830078 26.19760742 -117.03535156 27.09833984 -117.42382812 28.02636719 C-118.46119293 30.69767176 -118.46119293 30.69767176 -118.25 34.5 C-111.01170742 34.46648939 -106.37979042 32.66452941 -101.25 27.5 C-98.74113988 24.34802362 -97.39347212 21.39670072 -96.75 17.375 C-97.40944448 13.58319425 -98.34605511 12.04095178 -101.25 9.5 C-103.90919034 8.92342971 -106.53340139 8.7567517 -109.25 8.5 Z M-50.25 27.5 C-52.46370051 29.28657757 -52.46370051 29.28657757 -52.4453125 31.6640625 C-52.42210938 32.47617187 -52.39890625 33.28828125 -52.375 34.125 C-52.35695313 34.94226562 -52.33890625 35.75953125 -52.3203125 36.6015625 C-52.29710938 37.22804688 -52.27390625 37.85453125 -52.25 38.5 C-49.10041169 35.07653445 -48.68820891 32.05737263 -48.25 27.5 C-48.91 27.5 -49.57 27.5 -50.25 27.5 Z M49.75 27.5 C47.69074319 30.58888522 47.5109626 31.20935927 47.625 34.6875 C47.66625 35.945625 47.7075 37.20375 47.75 38.5 C50.89958831 35.07653445 51.31179109 32.05737263 51.75 27.5 C51.09 27.5 50.43 27.5 49.75 27.5 Z M59.75 36.5 C60.75 38.5 60.75 38.5 60.75 38.5 Z " fill="#0B0906" transform="translate(146.25,7.5)"/>
<path d="M0 0 C1.03640625 -0.04125 2.0728125 -0.0825 3.140625 -0.125 C9.35434641 -0.18840532 12.97182106 0.47592917 17.53417969 4.81445312 C18.89122965 6.69579307 19.34249632 8.23226046 19.75 10.5 C20.430625 9.5409375 20.430625 9.5409375 21.125 8.5625 C24.99688197 5.52030702 28.8934162 5.16060479 33.75 5.5 C36.60606262 7.31116166 37.36943819 8.66752104 38.75 11.6875 C38.75 18.75681995 34.39188337 24.56188496 29.765625 29.5703125 C26.33197286 32.85756861 22.59345671 35.71109717 18.75 38.5 C19.245 41.965 19.245 41.965 19.75 45.5 C24.9138923 44.56825422 27.47477531 41.41299664 30.75 37.5 C32.13171252 35.47687355 33.48473047 33.43393133 34.8125 31.375 C41.26729163 21.47600093 41.26729163 21.47600093 46.6875 19.95703125 C50.81077365 19.29324667 54.72564403 19.28333424 58.75 20.5 C60.99330842 22.79092582 61.70604924 24.08041673 62.04296875 27.296875 C61.99076172 28.75867187 61.99076172 28.75867187 61.9375 30.25 C61.89689453 31.72726563 61.89689453 31.72726563 61.85546875 33.234375 C61.82066406 33.98203125 61.78585938 34.7296875 61.75 35.5 C62.183125 34.8503125 62.61625 34.200625 63.0625 33.53125 C64.75 31.5 64.75 31.5 67.75 31 C70.75 31.5 70.75 31.5 72.4375 33.53125 C72.870625 34.1809375 73.30375 34.830625 73.75 35.5 C69.39745238 42.67452904 64.71885479 49.16420032 56.75 52.5 C54.4170134 52.54022391 52.08293334 52.54320247 49.75 52.5 C48.76 52.995 48.76 52.995 47.75 53.5 C45.81539059 53.6228777 43.87597096 53.67554888 41.9375 53.6875 C40.38095703 53.70876953 40.38095703 53.70876953 38.79296875 53.73046875 C35.75 53.5 35.75 53.5 33.02734375 52.3984375 C32.27582031 52.10195313 31.52429688 51.80546875 30.75 51.5 C29.88375 51.974375 29.0175 52.44875 28.125 52.9375 C23.22560983 55.20573619 18.93492549 54.81004206 13.75 53.5 C10.37882312 50.93790557 9.08010838 49.49032514 7.75 45.5 C6.67450346 34.74503463 10.86302423 23.43948173 16.75 14.5 C16.0075 14.70625 15.265 14.9125 14.5 15.125 C11.75 15.5 11.75 15.5 9.5 14.875 C7.12399228 13.00813679 7.19754753 11.40905892 6.75 8.5 C3.44005287 6.84502644 -0.24123 7.39915665 -3.875 7.4375 C-5.07769531 7.44426758 -5.07769531 7.44426758 -6.3046875 7.45117188 C-8.28649006 7.46296832 -10.26825433 7.48090395 -12.25 7.5 C-14.23 12.45 -16.21 17.4 -18.25 22.5 C-19.24 22.17 -20.23 21.84 -21.25 21.5 C-21.375 13.875 -21.375 13.875 -20.25 10.5 C-24.21 11.16 -28.17 11.82 -32.25 12.5 C-34.25 9.5 -34.25 9.5 -34.25 6.5 C-32.65066393 5.86274037 -31.04511868 5.24106646 -29.4375 4.625 C-28.54417969 4.27695313 -27.65085937 3.92890625 -26.73046875 3.5703125 C-17.93372963 0.86514245 -9.16779504 0.09260399 0 0 Z M49.75 27.5 C47.69074319 30.58888522 47.5109626 31.20935927 47.625 34.6875 C47.66625 35.945625 47.7075 37.20375 47.75 38.5 C50.89958831 35.07653445 51.31179109 32.05737263 51.75 27.5 C51.09 27.5 50.43 27.5 49.75 27.5 Z M59.75 36.5 C60.75 38.5 60.75 38.5 60.75 38.5 Z " fill="#0B0806" transform="translate(146.25,7.5)"/>
<path d="M0 0 C2.6195575 4.55997047 2.38650103 8.80668831 1.6875 13.9375 C-0.35484154 20.99505893 -5.19202848 25.44936912 -11.34375 29.1640625 C-13.3125 29.9375 -13.3125 29.9375 -16.3125 28.9375 C-13.75753972 24.01683576 -11.6751307 21.40523209 -7.3125 17.9375 C-4.73334283 13.8464231 -3.68223591 10.76952471 -4.3125 5.9375 C-5.18355376 3.55298201 -5.18355376 3.55298201 -7.3125 1.9375 C-11.36318825 0.42386702 -14.98697444 -0.0625 -19.3125 -0.0625 C-22.9425 8.8475 -26.5725 17.7575 -30.3125 26.9375 C-30.9725 26.9375 -31.6325 26.9375 -32.3125 26.9375 C-32.3125 27.5975 -32.3125 28.2575 -32.3125 28.9375 C-31.6525 29.5975 -30.9925 30.2575 -30.3125 30.9375 C-30.98732422 31.51951172 -30.98732422 31.51951172 -31.67578125 32.11328125 C-33.6485986 34.31210154 -34.46141897 36.36738829 -35.5 39.125 C-35.84417969 40.02605469 -36.18835937 40.92710938 -36.54296875 41.85546875 C-36.79691406 42.54253906 -37.05085938 43.22960938 -37.3125 43.9375 C-38.9625 43.2775 -40.6125 42.6175 -42.3125 41.9375 C-41.72145235 37.09090923 -40.33305843 33.33001833 -38.3125 28.9375 C-39.9625 27.6175 -41.6125 26.2975 -43.3125 24.9375 C-42.9825 23.6175 -42.6525 22.2975 -42.3125 20.9375 C-39.159132 20.23675156 -36.58525026 19.9375 -33.3125 19.9375 C-32.80882243 18.48043274 -32.30967444 17.02179904 -31.8125 15.5625 C-31.5340625 14.75039063 -31.255625 13.93828125 -30.96875 13.1015625 C-30.21576695 10.99540758 -30.21576695 10.99540758 -30.3125 8.9375 C-30.67601562 9.4428125 -31.03953125 9.948125 -31.4140625 10.46875 C-35.54039943 15.80124696 -35.54039943 15.80124696 -39.5 16.5 C-42.3125 15.9375 -42.3125 15.9375 -45.3125 13.9375 C-42.64147343 6.03571305 -36.24752793 0.62466951 -28.9375 -3.0625 C-24.54083176 -5.07240548 -20.63365127 -6.23389706 -15.8125 -6.6875 C-14.37390625 -6.83058594 -14.37390625 -6.83058594 -12.90625 -6.9765625 C-7.15186177 -7.16721994 -4.0527444 -3.61460987 0 0 Z " fill="#0C0806" transform="translate(52.3125,16.0625)"/>
<path d="M0 0 C1.32 0 2.64 0 4 0 C3.35083537 6.00477279 1.14204997 11.400781 -1 17 C-0.01 16.67 0.98 16.34 2 16 C4.33299825 15.96045766 6.66708189 15.95598268 9 16 C10.125 20.75 10.125 20.75 9 23 C6.89778307 23.09968672 4.79207396 23.12968203 2.6875 23.125 C-1.81195691 23.25294876 -1.81195691 23.25294876 -5.5390625 25.3828125 C-6.57954976 27.54521647 -7.27276486 29.7119536 -8 32 C-9.03954825 34.32290808 -10.10339732 36.63504829 -11.1875 38.9375 C-11.69667969 40.06027344 -12.20585938 41.18304688 -12.73046875 42.33984375 C-14 45 -14 45 -15 46 C-19.09789669 45.62056512 -21.53958935 45.30694043 -25 43 C-25.8971875 43.495 -25.8971875 43.495 -26.8125 44 C-29 45 -29 45 -32 45 C-30.91317024 41.73951072 -30.2927162 41.21253957 -27.6875 39.1875 C-23.53332458 35.758386 -20.72024077 32.16072231 -19 27 C-18.34 27 -17.68 27 -17 27 C-17 26.34 -17 25.68 -17 25 C-18.65 24.67 -20.3 24.34 -22 24 C-22 22.35 -22 20.7 -22 19 C-21.07767578 18.92265625 -21.07767578 18.92265625 -20.13671875 18.84375 C-17.53730069 18.4789194 -15.40515796 18.06611612 -13 17 C-11.23979079 14.3379552 -10.76466478 12.16061444 -10 9 C-9.67 9 -9.34 9 -9 9 C-9 10.98 -9 12.96 -9 15 C-8.34 15 -7.68 15 -7 15 C-6.57847656 14.00097656 -6.15695313 13.00195312 -5.72265625 11.97265625 C-5.16939783 10.66921692 -4.61600549 9.36583443 -4.0625 8.0625 C-3.78470703 7.40314453 -3.50691406 6.74378906 -3.22070312 6.06445312 C-1.11328125 1.11328125 -1.11328125 1.11328125 0 0 Z " fill="#0A0703" transform="translate(134,14)"/>
<path d="M0 0 C3.38614807 -0.41463038 5.96989247 -0.63042581 8.953125 1.1953125 C12.78410848 4.39852978 15.25844131 7.17148328 16.546875 12.0859375 C17.23898318 19.88546435 13.5522622 25.13173205 8.8359375 30.97265625 C5.15195542 35.13428394 1.51879189 37.15512877 -4 38 C-6.41637394 38.05613258 -8.8331355 38.09707404 -11.25 38.125 C-14.80603095 38.13469469 -14.80603095 38.13469469 -18 39 C-20.28279224 41.49226194 -21.48970936 43.73880126 -22.7890625 46.84765625 C-23.18867188 47.55792969 -23.58828125 48.26820312 -24 49 C-25.32 49 -26.64 49 -28 49 C-27.54738642 47.56068883 -27.08767021 46.12361001 -26.625 44.6875 C-26.36976562 43.88699219 -26.11453125 43.08648437 -25.8515625 42.26171875 C-25 40 -25 40 -23 37 C-23.33 36.34 -23.66 35.68 -24 35 C-23.67 34.34 -23.34 33.68 -23 33 C-22.34 33 -21.68 33 -21 33 C-20.82259277 32.46052734 -20.64518555 31.92105469 -20.46240234 31.36523438 C-18.5930984 25.71481075 -16.67826996 20.08637411 -14.625 14.5 C-14.3465625 13.69046875 -14.068125 12.8809375 -13.78125 12.046875 C-12.97986046 9.89539677 -12.22123975 7.94463439 -11 6 C-8.2734375 4.96875 -8.2734375 4.96875 -6 5 C-7.22840724 12.12476202 -9.7098376 18.30621609 -12.66015625 24.86328125 C-14.13205796 28.08043861 -14.13205796 28.08043861 -15 32 C-11.04 31.01 -7.08 30.02 -3 29 C-3.99 31.475 -3.99 31.475 -5 34 C-0.84689942 34 0.74067251 32.54227545 4 30 C9.00582682 24.12649654 10.36889345 19.37458169 10.27734375 11.6640625 C9.89302333 7.97242126 8.82452465 6.37854708 6 4 C2.88337092 2.19020859 2.88337092 2.19020859 0 1 C0 0.67 0 0.34 0 0 Z " fill="#110D08" transform="translate(43,10)"/>
<path d="M0 0 C6.27 0 12.54 0 19 0 C17.640738 3.398155 16.42980665 6.16103956 14.6171875 9.25 C14.17246094 10.0234375 13.72773437 10.796875 13.26953125 11.59375 C12.33787332 13.20131662 11.40033626 14.80548999 10.45703125 16.40625 C10.01488281 17.1796875 9.57273437 17.953125 9.1171875 18.75 C8.50786377 19.79414062 8.50786377 19.79414062 7.88623047 20.859375 C6.84628004 23.37129934 6.84050918 25.30690039 7 28 C8.65 28 10.3 28 12 28 C12.042721 29.66611905 12.04063832 31.33382885 12 33 C11 34 11 34 8.1875 34.3125 C5 34 5 34 2.625 32.5625 C0.15400016 28.66592333 0.06676019 25.48360866 1 21 C2.73385822 17.15644723 4.83352482 13.61079197 7 10 C7 9.67 7 9.34 7 9 C6.49210937 9.7940625 5.98421875 10.588125 5.4609375 11.40625 C4.77257813 12.4271875 4.08421875 13.448125 3.375 14.5 C2.70210937 15.5209375 2.02921875 16.541875 1.3359375 17.59375 C-1 20 -1 20 -4.0859375 20.46875 C-7 20 -7 20 -10 18 C-8.62921252 14.15628436 -6.84470218 11.16166017 -4.4375 7.875 C-2.45648138 5.16499947 -1.06538377 3.1961513 0 0 Z " fill="#0E0B07" transform="translate(59,27)"/>
<path d="M0 0 C0 0.66 0 1.32 0 2 C0.598125 2.103125 1.19625 2.20625 1.8125 2.3125 C4.39385573 3.12378323 5.33517123 3.88112703 7 6 C7.29296875 8.26171875 7.29296875 8.26171875 7.1875 10.6875 C7.14689453 11.89986328 7.14689453 11.89986328 7.10546875 13.13671875 C7.05326172 14.05904297 7.05326172 14.05904297 7 15 C5.02 14.34 3.04 13.68 1 13 C0.87625 12.195625 0.7525 11.39125 0.625 10.5625 C0.41875 9.716875 0.2125 8.87125 0 8 C-3.30994713 6.34502644 -6.99123 6.89915665 -10.625 6.9375 C-11.82769531 6.94426758 -11.82769531 6.94426758 -13.0546875 6.95117188 C-15.03649006 6.96296832 -17.01825433 6.98090395 -19 7 C-20.98 11.95 -22.96 16.9 -25 22 C-25.99 21.67 -26.98 21.34 -28 21 C-28.125 13.375 -28.125 13.375 -27 10 C-30.96 10.66 -34.92 11.32 -39 12 C-41 9 -41 9 -41 6 C-27.10892516 0.46506496 -14.78065206 -0.27570128 0 0 Z " fill="#0C0905" transform="translate(153,8)"/>
<path d="M0 0 C2.8125 0.125 2.8125 0.125 6 1 C8.0625 3.5 8.0625 3.5 9 7 C8.11131799 15.62350687 1.77425292 22.7282018 -4.5234375 28.1875 C-6.64771384 29.84939443 -8.78977587 31.45488961 -11 33 C-10.835 34.093125 -10.67 35.18625 -10.5 36.3125 C-10 40 -10 40 -10 43 C-12.4375 42.625 -12.4375 42.625 -15 42 C-16.77636457 38.44727086 -16.89988081 34.84731651 -16 31 C-14.24615602 29.08590632 -12.41030707 27.85748101 -10.23046875 26.453125 C-4.03405906 22.41623462 0.55151494 17.00620724 3 10 C3.36363836 6.72725477 3.04741292 5.14223877 2 2 C1.34 2 0.68 2 0 2 C0 1.34 0 0.68 0 0 Z " fill="#CDC5B3" transform="translate(176,13)"/>
<path d="M0 0 C0.66 0.33 1.32 0.66 2 1 C1.52269162 2.4589426 1.04308958 3.91713496 0.5625 5.375 C0.29566406 6.18710937 0.02882813 6.99921875 -0.24609375 7.8359375 C-1 10 -1 10 -2 12 C-2.66 12 -3.32 12 -4 12 C-4 12.66 -4 13.32 -4 14 C-3.34 14.66 -2.68 15.32 -2 16 C-2.67482422 16.58201172 -2.67482422 16.58201172 -3.36328125 17.17578125 C-5.3360986 19.37460154 -6.14891897 21.42988829 -7.1875 24.1875 C-7.53167969 25.08855469 -7.87585938 25.98960938 -8.23046875 26.91796875 C-8.48441406 27.60503906 -8.73835937 28.29210937 -9 29 C-11.475 28.01 -11.475 28.01 -14 27 C-13.40895235 22.15340923 -12.02055843 18.39251833 -10 14 C-11.65 12.68 -13.3 11.36 -15 10 C-14.67 8.68 -14.34 7.36 -14 6 C-11.32873989 5.38942626 -9.18140597 4.98230186 -6.4375 5.25 C-3.71268109 5.24188193 -3.71268109 5.24188193 -1.6875 2.5 C-1.130625 1.675 -0.57375 0.85 0 0 Z " fill="#090909" transform="translate(24,31)"/>
<path d="M0 0 C3.38614807 -0.41463038 5.96989247 -0.63042581 8.953125 1.1953125 C12.78410848 4.39852978 15.25844131 7.17148328 16.546875 12.0859375 C17.23785495 19.87275002 13.55148864 25.10985584 8.87890625 30.96875 C5.31436959 35.00928493 1.29718765 37.04747818 -4 38 C-4.99 38 -5.98 38 -7 38 C-7 37.34 -7 36.68 -7 36 C-6.34773438 35.731875 -5.69546875 35.46375 -5.0234375 35.1875 C1.45187694 32.28411417 5.47547673 29.2166868 9 23 C10.54198479 18.37404564 10.50292232 13.83088767 10 9 C7.60414012 4.57687407 4.55305903 2.96609367 0 1 C0 0.67 0 0.34 0 0 Z " fill="#D8D3C5" transform="translate(43,10)"/>
<path d="M0 0 C1.32 0 2.64 0 4 0 C3.43360417 3.5035464 2.56634954 6.15099088 0.78515625 9.21484375 C0.34623047 9.98376953 -0.09269531 10.75269531 -0.54492188 11.54492188 C-1.00447266 12.33447266 -1.46402344 13.12402344 -1.9375 13.9375 C-4.79575116 18.86565864 -7.44728024 23.47231765 -9 29 C-10.32 28.67 -11.64 28.34 -13 28 C-12.6980154 20.97642261 -9.48765527 15.99835961 -5.9375 10.0625 C-5.08575195 8.6074707 -5.08575195 8.6074707 -4.21679688 7.12304688 C-2.82129906 4.74249178 -1.41558519 2.36864614 0 0 Z " fill="#D6CFBE" transform="translate(78,27)"/>
<path d="M0 0 C0.66 0.33 1.32 0.66 2 1 C-0.97 3.97 -0.97 3.97 -4 7 C-3.67 7.66 -3.34 8.32 -3 9 C-0.69 7.35 1.62 5.7 4 4 C4.33 4.99 4.66 5.98 5 7 C3.9171875 8.051875 3.9171875 8.051875 2.8125 9.125 C0.83074036 11.06779245 -0.80094146 13.07551576 -2.4375 15.3125 C-5 18 -5 18 -8.125 18.5 C-11 18 -11 18 -14 16 C-12.62228051 11.79237019 -10.73072709 9.37668023 -7.5625 6.3125 C-6.38880859 5.16201172 -6.38880859 5.16201172 -5.19140625 3.98828125 C-3 2 -3 2 0 0 Z " fill="#0F0700" transform="translate(21,14)"/>
<path d="M0 0 C1.32 0 2.64 0 4 0 C2.77159276 7.12476202 0.2901624 13.30621609 -2.66015625 19.86328125 C-3.69400267 22.28362724 -4.48700301 24.43501504 -5 27 C-6.98 27 -8.96 27 -11 27 C-9.59756761 23.31420273 -8.19165671 19.62975386 -6.7824707 15.9465332 C-6.06731185 14.07509174 -5.3549353 12.20258783 -4.64257812 10.33007812 C-4.19462891 9.16025391 -3.74667969 7.99042969 -3.28515625 6.78515625 C-2.66459351 5.15912476 -2.66459351 5.15912476 -2.03149414 3.50024414 C-1 1 -1 1 0 0 Z " fill="#D6D1BF" transform="translate(33,15)"/>
<path d="M0 0 C5.37313433 0.47761194 5.37313433 0.47761194 7.875 2.5625 C9.95032553 7.05903866 9.57330185 11.01549359 8.23828125 15.63671875 C5.29838647 23.59651291 5.29838647 23.59651291 1 26 C0.01 25.67 -0.98 25.34 -2 25 C-1.72285156 24.46890625 -1.44570312 23.9378125 -1.16015625 23.390625 C-0.79792969 22.68421875 -0.43570313 21.9778125 -0.0625 21.25 C0.29714844 20.55390625 0.65679687 19.8578125 1.02734375 19.140625 C3.18849103 14.38436512 3.32799135 10.16586381 3 5 C1.62493901 3.12109566 1.62493901 3.12109566 0 2 C0 1.34 0 0.68 0 0 Z " fill="#CDC8BD" transform="translate(199,27)"/>
<path d="M0 0 C2.88949684 0.31237804 4.58633099 0.64338879 6.8125 2.5625 C9.25514343 7.57634704 8.30060683 12.58839515 6.8125 17.75 C5.37625884 21.68434783 3.76666156 23.92833614 0 26 C-0.99 25.67 -1.98 25.34 -3 25 C-2.6390625 24.40574219 -2.278125 23.81148437 -1.90625 23.19921875 C1.6952988 16.76645243 3.11826472 11.36877592 2 4 C1.05362403 1.74988226 1.05362403 1.74988226 0 0 Z " fill="#DFD7C1" transform="translate(100,27)"/>
<path d="M0 0 C1.9375 0.25 1.9375 0.25 4 1 C4.66 1.99 5.32 2.98 6 4 C1.63886109 11.18869052 -3.03136716 17.63823302 -11 21 C-13.33293334 21.04320247 -15.6670134 21.04022391 -18 21 C-20.0064731 21.29185063 -22.00994193 21.61169599 -24 22 C-23.505 20.515 -23.505 20.515 -23 19 C-22.34773437 18.97421875 -21.69546875 18.9484375 -21.0234375 18.921875 C-13.99285142 18.46561278 -9.95436794 17.21435231 -5.046875 11.875 C-2.2914008 8.59753136 -2.2914008 8.59753136 0 5 C-0.29820551 2.82426695 -0.29820551 2.82426695 -1 1 C-0.67 0.67 -0.34 0.34 0 0 Z " fill="#DAD1B8" transform="translate(214,39)"/>
<path d="M0 0 C1.98 0 3.96 0 6 0 C4.54953333 3.46168537 3.08830617 6.91872469 1.625 10.375 C1.2125 11.35984375 0.8 12.3446875 0.375 13.359375 C-0.02460937 14.30039062 -0.42421875 15.24140625 -0.8359375 16.2109375 C-1.38580322 17.51490479 -1.38580322 17.51490479 -1.94677734 18.84521484 C-3 21 -3 21 -5 23 C-5.99 23 -6.98 23 -8 23 C-7.38696372 17.59491957 -5.55619307 13.07560955 -3.4375 8.125 C-3.10814453 7.34125 -2.77878906 6.5575 -2.43945312 5.75 C-1.63203214 3.83091244 -0.81680231 1.9151135 0 0 Z " fill="#D9D0BE" transform="translate(124,37)"/>
<path d="M0 0 C2.4375 0.3125 2.4375 0.3125 4.078125 1.97265625 C5.76780776 4.88104697 5.74421014 6.72461604 5.625 10.0625 C5.59792969 11.04734375 5.57085937 12.0321875 5.54296875 13.046875 C5.50816406 13.79453125 5.47335938 14.5421875 5.4375 15.3125 C3.7875 15.6425 2.1375 15.9725 0.4375 16.3125 C0.4375 13.0125 0.4375 9.7125 0.4375 6.3125 C-3.5225 6.3125 -7.4825 6.3125 -11.5625 6.3125 C-7.59593402 2.01538685 -5.61414996 0.68465243 0 0 Z " fill="#090708" transform="translate(97.5625,26.6875)"/>
<path d="M0 0 C0.66 0 1.32 0 2 0 C2.66 2.97 3.32 5.94 4 9 C5.65 9 7.3 9 9 9 C9.042721 10.66611905 9.04063832 12.33382885 9 14 C8 15 8 15 5.1875 15.3125 C2 15 2 15 -0.375 13.5625 C-2.71135006 9.87825567 -2.70816502 6.26545908 -2 2 C-1.34 1.34 -0.68 0.68 0 0 Z " fill="#030102" transform="translate(62,46)"/>
<path d="M0 0 C2.33944736 0.28730055 4.6739143 0.61936779 7 1 C6.67 1.66 6.34 2.32 6 3 C5.34 2.67 4.68 2.34 4 2 C3.89365234 3.07314453 3.89365234 3.07314453 3.78515625 4.16796875 C2.77620031 7.80723769 1.0209574 9.58349571 -1.5625 12.3125 C-2.38878906 13.19550781 -3.21507813 14.07851563 -4.06640625 14.98828125 C-5.02353516 15.98408203 -5.02353516 15.98408203 -6 17 C-6.99 16.01 -7.98 15.02 -9 14 C-8.55914062 13.43667969 -8.11828125 12.87335937 -7.6640625 12.29296875 C-6.02639902 10.03637612 -4.69655975 7.76508788 -3.375 5.3125 C-1.09964413 1.09964413 -1.09964413 1.09964413 0 0 Z " fill="#120F0A" transform="translate(111,39)"/>
<path d="M0 0 C1.32 0 2.64 0 4 0 C3.41347648 4.48993869 2.2356462 8.22543184 0.4375 12.375 C-0.01753906 13.43460938 -0.47257813 14.49421875 -0.94140625 15.5859375 C-1.29074219 16.38257812 -1.64007813 17.17921875 -2 18 C-3.65 18 -5.3 18 -7 18 C-5.06375702 11.79522136 -2.74390859 5.89174281 0 0 Z " fill="#D8CFBD" transform="translate(134,14)"/>
<path d="M0 0 C0 0.66 0 1.32 0 2 C-0.99 2.66 -1.98 3.32 -3 4 C-3.21265181 6.30811683 -3.21265181 6.30811683 -2.9375 8.875 C-2.76355954 13.6896719 -2.76355954 13.6896719 -5 16.625 C-5.99 17.305625 -5.99 17.305625 -7 18 C-9.95894048 13.56158927 -9.77127559 9.20416254 -9 4 C-5.93464441 0.33860305 -4.80635618 0 0 0 Z " fill="#D4D1C5" transform="translate(98,33)"/>
<path d="M0 0 C-0.48146484 1.06154297 -0.48146484 1.06154297 -0.97265625 2.14453125 C-2.34736888 5.96550057 -2.38960689 9.54579004 -2.55859375 13.57421875 C-2.70425781 14.37472656 -2.84992188 15.17523438 -3 16 C-3.99 16.66 -4.98 17.32 -6 18 C-8.96352376 13.55471436 -8.64002358 9.2138506 -8 4 C-5.46596939 0.10845299 -4.72158835 0 0 0 Z " fill="#D6D4CE" transform="translate(197,33)"/>
<path d="M0 0 C2.73091196 -0.49652945 4.47783246 -0.30100154 6.890625 1.08984375 C8.87843996 2.61302716 10.47302317 4.01147933 12 6 C12.4375 9.875 12.4375 9.875 12 13 C10.35 13.33 8.7 13.66 7 14 C6.896875 12.741875 6.79375 11.48375 6.6875 10.1875 C6.35672815 7.55064273 6.18061612 6.25450453 4.625 4.0625 C2.86586082 2.81390177 2.86586082 2.81390177 0 2 C0 1.34 0 0.68 0 0 Z " fill="#DBD2B2" transform="translate(153,8)"/>
<path d="M0 0 C0.66 0.33 1.32 0.66 2 1 C1.01 3.97 0.02 6.94 -1 10 C-2.32 9.67 -3.64 9.34 -5 9 C-5.99 9 -6.98 9 -8 9 C-9.67099977 8.68911632 -11.33871537 8.35919668 -13 8 C-13.33 8.99 -13.66 9.98 -14 11 C-14.625 9.125 -14.625 9.125 -15 7 C-13 5 -13 5 -10.9765625 4.98046875 C-10.20054688 5.04878906 -9.42453125 5.11710937 -8.625 5.1875 C-6.23192048 5.3208058 -6.23192048 5.3208058 -4 5 C-1.39089037 2.6816144 -1.39089037 2.6816144 0 0 Z " fill="#0B0A0B" transform="translate(24,31)"/>
<path d="M0 0 C0.66 0 1.32 0 2 0 C1.07563157 5.54621056 -0.93296338 10.28903175 -4 15 C-7.34460156 17.27432906 -8.9893523 18 -13 18 C-11.91317024 14.73951072 -11.2927162 14.21253957 -8.6875 12.1875 C-4.53332458 8.758386 -1.72024077 5.16072231 0 0 Z " fill="#CBC7AD" transform="translate(115,41)"/>
<path d="M0 0 C1.22414155 3.67242465 1.46559007 6.1422537 1 10 C-0.81240024 12.35153195 -2.41385452 13.37732048 -5 15 C-5.99 14.67 -6.98 14.34 -8 14 C-7.04941561 11.85072273 -6.08930503 9.70565638 -5.125 7.5625 C-4.59132813 6.36753906 -4.05765625 5.17257813 -3.5078125 3.94140625 C-2 1 -2 1 0 0 Z " fill="#DBD8CF" transform="translate(105,38)"/>
<path d="M0 0 C1.32 0 2.64 0 4 0 C3.37606349 3.76119476 1.65226285 6.18960042 -0.5625 9.25 C-1.20316406 10.14203125 -1.84382813 11.0340625 -2.50390625 11.953125 C-3.24447266 12.96632813 -3.24447266 12.96632813 -4 14 C-4.99 13.67 -5.98 13.34 -7 13 C-5.86535866 9.69922518 -4.36542129 6.70244518 -2.625 3.6875 C-2.22539063 2.99011719 -1.82578125 2.29273438 -1.4140625 1.57421875 C-0.94742188 1.05472656 -0.48078125 0.53523438 0 0 Z " fill="#D3C9B8" transform="translate(62,33)"/>
<path d="M0 0 C0.66 0 1.32 0 2 0 C1.66143729 5.41700329 -1.5622688 9.06059033 -5 13 C-7.875 15.5 -7.875 15.5 -10 17 C-8.34564465 10.54801415 -4.70204136 4.70204136 0 0 Z " fill="#D1CFC5" transform="translate(173,19)"/>
<path d="M0 0 C0.99 0.33 1.98 0.66 3 1 C1.66659064 4.58994826 0.34884529 7.95520055 -2 11 C-4.6875 11.3125 -4.6875 11.3125 -7 11 C-7 6.6615043 -6.75983956 6.05553665 -4 3 C-2 1.1875 -2 1.1875 0 0 Z " fill="#080706" transform="translate(168,19)"/>
<path d="M0 0 C0.33 0.99 0.66 1.98 1 3 C0.278125 3.70125 -0.44375 4.4025 -1.1875 5.125 C-3.16809575 7.08315274 -4.91077296 9.11891464 -6.625 11.3125 C-7.800625 12.6428125 -7.800625 12.6428125 -9 14 C-9.99 14 -10.98 14 -12 14 C-11.51003103 9.75360227 -8.93618325 6.90511253 -6 4 C-4.05696912 2.51307966 -2.09921002 1.26928978 0 0 Z " fill="#C6BEA4" transform="translate(25,18)"/>
<path d="M0 0 C1.9375 0.25 1.9375 0.25 4 1 C4.66 1.99 5.32 2.98 6 4 C5.04737966 5.48285242 4.08771595 6.96118201 3.125 8.4375 C2.59132812 9.26121094 2.05765625 10.08492187 1.5078125 10.93359375 C0 13 0 13 -2 14 C-2 13.01 -2 12.02 -2 11 C-2.66 10.67 -3.32 10.34 -4 10 C-3.319375 9.2575 -2.63875 8.515 -1.9375 7.75 C0.29518548 5.24583526 0.29518548 5.24583526 -0.3125 2.75 C-0.539375 2.1725 -0.76625 1.595 -1 1 C-0.67 0.67 -0.34 0.34 0 0 Z " fill="#D7CBB1" transform="translate(214,39)"/>
<path d="M0 0 C1.65 0.33 3.3 0.66 5 1 C3.02 4.63 1.04 8.26 -1 12 C-2.32 12 -3.64 12 -5 12 C-4.54738642 10.56068883 -4.08767021 9.12361001 -3.625 7.6875 C-3.24214844 6.48673828 -3.24214844 6.48673828 -2.8515625 5.26171875 C-2 3 -2 3 0 0 Z " fill="#D8D0BA" transform="translate(20,47)"/>
<path d="M0 0 C0.66 0 1.32 0 2 0 C2 0.66 2 1.32 2 2 C2.66 2 3.32 2 4 2 C3.46274105 5.37705625 2.88935377 8.696686 2 12 C0.02 11.34 -1.96 10.68 -4 10 C-2.8905928 6.51329166 -1.73662334 3.22515763 0 0 Z " fill="#1D1811" transform="translate(114,48)"/>
<path d="M0 0 C5.37313433 0.47761194 5.37313433 0.47761194 7.875 2.5625 C9.95668759 7.07282311 9.55909389 12.32271833 8 17 C7.34 17 6.68 17 6 17 C5.67 15.35 5.34 13.7 5 12 C5.66 12 6.32 12 7 12 C5.24610135 7.35216858 4.24312703 4.77997978 0 2 C0 1.34 0 0.68 0 0 Z " fill="#D8CBAF" transform="translate(199,27)"/>
<path d="M0 0 C1.32 0 2.64 0 4 0 C3.42365861 4.75481646 1.44931479 7.97048212 -1 12 C-2.65 12 -4.3 12 -6 12 C-4.02 8.04 -2.04 4.08 0 0 Z " fill="#DDD4BB" transform="translate(78,27)"/>
<path d="M0 0 C0.99 0 1.98 0 3 0 C3.21278058 4.46839215 2.59138085 7.82262526 1 12 C-0.98 12 -2.96 12 -5 12 C-3.35 8.04 -1.7 4.08 0 0 Z " fill="#DDD5C5" transform="translate(27,30)"/>
<path d="M0 0 C0.66 0.33 1.32 0.66 2 1 C0.66666667 2.33333333 -0.66666667 3.66666667 -2 5 C2.29 4.34 6.58 3.68 11 3 C11 3.66 11 4.32 11 5 C6.29026351 6.76615118 1.96916636 7.48594831 -3 8 C-5 5 -5 5 -5 2 C-2.625 0.9375 -2.625 0.9375 0 0 Z " fill="#372F1F" transform="translate(117,12)"/>
<path d="M0 0 C2.8125 0.125 2.8125 0.125 6 1 C8.0625 3.5 8.0625 3.5 9 7 C8.35140885 10.16059497 7.28081199 13.04428002 6 16 C5.67 16 5.34 16 5 16 C5 14.35 5 12.7 5 11 C5.66 11 6.32 11 7 11 C6.81171228 8.55519921 6.81171228 8.55519921 6 6 C4.03241727 4.63979849 4.03241727 4.63979849 2 4 C2 3.34 2 2.68 2 2 C1.34 2 0.68 2 0 2 C0 1.34 0 0.68 0 0 Z " fill="#D5C9A2" transform="translate(176,13)"/>
<path d="M0 0 C1.11375 0.350625 2.2275 0.70125 3.375 1.0625 C6.80264476 2.37239331 6.80264476 2.37239331 9 1 C9.66 1.33 10.32 1.66 11 2 C11 2.66 11 3.32 11 4 C8.3125 5.6875 8.3125 5.6875 5 7 C2.1875 5.875 2.1875 5.875 0 4 C-0.33 3.01 -0.66 2.02 -1 1 C-0.67 0.67 -0.34 0.34 0 0 Z " fill="#030102" transform="translate(11,38)"/>
<path d="M0 0 C0.66 0 1.32 0 2 0 C2 1.65 2 3.3 2 5 C0.75539217 5.67667998 -0.49596896 6.34094719 -1.75 7 C-2.79414063 7.556875 -2.79414063 7.556875 -3.859375 8.125 C-6 9 -6 9 -10 9 C-10 8.34 -10 7.68 -10 7 C-8.3203125 5.78125 -8.3203125 5.78125 -6.125 4.5 C-3.74637514 3.10181191 -1.96207916 1.96207916 0 0 Z " fill="#BFB9A0" transform="translate(177,53)"/>
<path d="M0 0 C3.48472283 -0.42670076 6.0186845 -0.64789556 9.0234375 1.3359375 C10.74896747 2.83609212 12.40059768 4.36656784 14 6 C13.67 6.66 13.34 7.32 13 8 C8.27626146 6.37621488 4.05818166 3.89006982 0 1 C0 0.67 0 0.34 0 0 Z " fill="#E1D4B5" transform="translate(43,10)"/>
<path d="M0 0 C2.0625 0.4375 2.0625 0.4375 4 1 C0.66885915 5.02512852 -3.06100148 6.66129814 -8 8 C-8.99 8 -9.98 8 -11 8 C-11 7.34 -11 6.68 -11 6 C-10.28972656 5.65066406 -9.57945313 5.30132812 -8.84765625 4.94140625 C-7.92855469 4.48636719 -7.00945313 4.03132813 -6.0625 3.5625 C-4.68771484 2.88380859 -4.68771484 2.88380859 -3.28515625 2.19140625 C-1.09471096 1.19474606 -1.09471096 1.19474606 0 0 Z " fill="#C0BA9F" transform="translate(47,40)"/>
<path d="M0 0 C2.31 0 4.62 0 7 0 C8.125 4.75 8.125 4.75 7 7 C5.35 7 3.7 7 2 7 C2.04125 6.21625 2.0825 5.4325 2.125 4.625 C2.28728734 1.83883881 2.28728734 1.83883881 0 0 Z " fill="#CFC3A9" transform="translate(136,30)"/>
<path d="M0 0 C0 0.66 0 1.32 0 2 C-1.65 2 -3.3 2 -5 2 C-5.33 3.32 -5.66 4.64 -6 6 C-8.64 6 -11.28 6 -14 6 C-9.25079014 0.85502265 -6.84426474 -0.19011847 0 0 Z " fill="#1B1608" transform="translate(100,27)"/>
<path d="M0 0 C0.33 0 0.66 0 1 0 C1.33 2.64 1.66 5.28 2 8 C2.66 8 3.32 8 4 8 C4 6.02 4 4.04 4 2 C4.33 2 4.66 2 5 2 C6.05699482 7.28497409 6.05699482 7.28497409 6 10 C4.0625 12.5 4.0625 12.5 2 14 C-0.28062828 10.57905758 -0.21925007 9.31812778 -0.125 5.3125 C-0.10695313 4.31863281 -0.08890625 3.32476562 -0.0703125 2.30078125 C-0.04710938 1.54152344 -0.02390625 0.78226563 0 0 Z " fill="#BCB7A9" transform="translate(89,37)"/>
<path d="M0 0 C0.66 0 1.32 0 2 0 C2 1.65 2 3.3 2 5 C-3.625 8 -3.625 8 -7 8 C-7 7.34 -7 6.68 -7 6 C-2.52941176 2 -2.52941176 2 0 2 C0 1.34 0 0.68 0 0 Z " fill="#BFB7A3" transform="translate(77,54)"/>
<path d="M0 0 C0.8125 1.625 0.8125 1.625 1 4 C-2.80816034 9.54903364 -2.80816034 9.54903364 -6.3125 10.875 C-6.869375 10.91625 -7.42625 10.9575 -8 11 C-7.66141506 7.83987387 -7.05398412 7.04567887 -4.5625 4.9375 C-3.716875 4.298125 -2.87125 3.65875 -2 3 C-1.34 2.01 -0.68 1.02 0 0 Z " fill="#E1D4BD" transform="translate(178,29)"/>
<path d="M0 0 C6.27 0 12.54 0 19 0 C18.67 0.99 18.34 1.98 18 3 C12.06 2.67 6.12 2.34 0 2 C0 1.34 0 0.68 0 0 Z " fill="#3B3718" transform="translate(59,27)"/>
<path d="M0 0 C1.60080151 4.00200378 0.29279692 7.04556236 -1 11 C-0.34 11.33 0.32 11.66 1 12 C1 12.66 1 13.32 1 14 C-1.475 13.01 -1.475 13.01 -4 12 C-3.45660208 7.43545749 -2.20536179 4.0271824 0 0 Z " fill="#130600" transform="translate(14,46)"/>
<path d="M0 0 C0.33 0.99 0.66 1.98 1 3 C-3.39453125 7.00390625 -3.39453125 7.00390625 -5 8 C-5.99 7.67 -6.98 7.34 -8 7 C-7.01 5.02 -6.02 3.04 -5 1 C-4.34 1.66 -3.68 2.32 -3 3 C-2.01 2.01 -1.02 1.02 0 0 Z " fill="#BEBCB0" transform="translate(105,45)"/>
<path d="M0 0 C2.12508244 3.18762365 2.5020163 5.26512223 3 9 C2.34 9 1.68 9 1 9 C1.33 10.65 1.66 12.3 2 14 C1.01 14.33 0.02 14.66 -1 15 C-0.67 10.05 -0.34 5.1 0 0 Z " fill="#D6D0CE" transform="translate(203,30)"/>
<path d="M0 0 C1.32 0.33 2.64 0.66 4 1 C4.042721 2.66611905 4.04063832 4.33382885 4 6 C3 7 3 7 0.4375 7.0625 C-0.7690625 7.0315625 -0.7690625 7.0315625 -2 7 C-1.34 4.69 -0.68 2.38 0 0 Z " fill="#C5BCAC" transform="translate(129,25)"/>
<path d="M0 0 C0.66 0 1.32 0 2 0 C1.42365861 4.75481646 -0.55068521 7.97048212 -3 12 C-3.66 12 -4.32 12 -5 12 C-4.46231128 8.1286412 -3.422527 6.02815875 -1 3 C-0.67 2.01 -0.34 1.02 0 0 Z " fill="#C8C6BF" transform="translate(115,41)"/>
<path d="M0 0 C0.66 0.99 1.32 1.98 2 3 C0.453125 2.9690625 0.453125 2.9690625 -1.125 2.9375 C-4.55152969 2.99276661 -7.64572414 3.34550715 -11 4 C-10.67 3.01 -10.34 2.02 -10 1 C-6.7 0.67 -3.4 0.34 0 0 Z " fill="#AB9A7F" transform="translate(201,57)"/>
<path d="M0 0 C0.99 0 1.98 0 3 0 C3.144375 1.11375 3.28875 2.2275 3.4375 3.375 C3.78372035 6.82142047 3.78372035 6.82142047 5 9 C3.68 9 2.36 9 1 9 C-0.4783226 6.04335481 -0.06032783 3.25770263 0 0 Z " fill="#DED7D0" transform="translate(160,46)"/>
<path d="M0 0 C1.670625 0.061875 1.670625 0.061875 3.375 0.125 C3.375 1.445 3.375 2.765 3.375 4.125 C1.065 3.795 -1.245 3.465 -3.625 3.125 C-3.955 4.115 -4.285 5.105 -4.625 6.125 C-5.25 4.25 -5.25 4.25 -5.625 2.125 C-3.625 0.125 -3.625 0.125 0 0 Z " fill="#463C2A" transform="translate(14.625,35.875)"/>
<path d="M0 0 C0.33 0 0.66 0 1 0 C1.28571429 8.57142857 1.28571429 8.57142857 -1 12 C-1.33 10.35 -1.66 8.7 -2 7 C-2.66 7 -3.32 7 -4 7 C-4 5.02 -4 3.04 -4 1 C-3.01 2.485 -3.01 2.485 -2 4 C-1.34 4 -0.68 4 0 4 C0 2.68 0 1.36 0 0 Z " fill="#CBC3AB" transform="translate(107,32)"/>
<path d="M0 0 C0.33 0 0.66 0 1 0 C1.66 3.3 2.32 6.6 3 10 C4.65 10.33 6.3 10.66 8 11 C8.66 11.66 9.32 12.32 10 13 C6.58243849 13.31068741 4.59893023 13.3625104 1.625 11.5625 C-0.76173366 7.79880462 -0.33387931 4.34043107 0 0 Z " fill="#190A01" transform="translate(60,48)"/>
<path d="M0 0 C1.32 0 2.64 0 4 0 C3.68289062 0.70511719 3.36578125 1.41023438 3.0390625 2.13671875 C1.95461714 5.12505879 1.6035641 7.65069658 1.375 10.8125 C1.30023438 11.78832031 1.22546875 12.76414062 1.1484375 13.76953125 C1.09945312 14.50558594 1.05046875 15.24164063 1 16 C0.67 16 0.34 16 0 16 C0 10.72 0 5.44 0 0 Z " fill="#BEB597" transform="translate(193,33)"/>
<path d="M0 0 C0.66 0.33 1.32 0.66 2 1 C1.67 2.65 1.34 4.3 1 6 C-2.63 6 -6.26 6 -10 6 C-10 5.67 -10 5.34 -10 5 C-7.36 5 -4.72 5 -2 5 C-1.34 3.35 -0.68 1.7 0 0 Z " fill="#2F2C1E" transform="translate(137,31)"/>
<path d="M0 0 C0.33 0.99 0.66 1.98 1 3 C-0.65 4.65 -2.3 6.3 -4 8 C-4.33 7.34 -4.66 6.68 -5 6 C-5.66 5.67 -6.32 5.34 -7 5 C-4.69 3.35 -2.38 1.7 0 0 Z " fill="#A7A398" transform="translate(25,18)"/>
<path d="M0 0 C0.33 0.99 0.66 1.98 1 3 C-0.21484375 4.82421875 -0.21484375 4.82421875 -1.9375 6.6875 C-2.50339844 7.31011719 -3.06929687 7.93273438 -3.65234375 8.57421875 C-4.09707031 9.04472656 -4.54179687 9.51523437 -5 10 C-5.66 9.34 -6.32 8.68 -7 8 C-4.69 5.36 -2.38 2.72 0 0 Z " fill="#0D0200" transform="translate(180,41)"/>
<path d="M0 0 C0.33 2.64 0.66 5.28 1 8 C-0.32 8 -1.64 8 -3 8 C-3 5.69 -3 3.38 -3 1 C-1 0 -1 0 0 0 Z " fill="#C6C1B9" transform="translate(163,14)"/>
<path d="M0 0 C1.54571278 2.31856917 2.79618552 4.50638429 4 7 C2.0625 7.5625 2.0625 7.5625 0 8 C-1 7 -1 7 -1.125 4 C-1 1 -1 1 0 0 Z " fill="#ADADA9" transform="translate(184,48)"/>
<path d="M0 0 C1.54571278 2.31856917 2.79618552 4.50638429 4 7 C2.0625 7.5625 2.0625 7.5625 0 8 C-1 7 -1 7 -1.125 4 C-1 1 -1 1 0 0 Z " fill="#AAABA1" transform="translate(84,48)"/>
<path d="M0 0 C0.66 0 1.32 0 2 0 C1.25 4.75 1.25 4.75 -1 7 C-1.99 6.67 -2.98 6.34 -4 6 C-2.84826645 3.53199953 -1.95216435 1.95216435 0 0 Z " fill="#BCBAB9" transform="translate(173,19)"/>
<path d="M0 0 C1.32 0 2.64 0 4 0 C3.34 2.97 2.68 5.94 2 9 C1.67 9 1.34 9 1 9 C1 7.02 1 5.04 1 3 C0.34 3 -0.32 3 -1 3 C-0.67 2.01 -0.34 1.02 0 0 Z " fill="#C0B7A2" transform="translate(33,15)"/>
<path d="M0 0 C0.66 0.33 1.32 0.66 2 1 C2 2.98 2 4.96 2 7 C0.35 7 -1.3 7 -3 7 C-2.01 4.69 -1.02 2.38 0 0 Z " fill="#D5D3C9" transform="translate(75,32)"/>
<path d="M0 0 C-0.33 1.98 -0.66 3.96 -1 6 C-2.32 6 -3.64 6 -5 6 C-4.625 3.5625 -4.625 3.5625 -4 1 C-2 0 -2 0 0 0 Z " fill="#E4DCCC" transform="translate(135,21)"/>
<path d="M0 0 C0.33 0 0.66 0 1 0 C1 2.64 1 5.28 1 8 C0.34 7.34 -0.32 6.68 -1 6 C-1.99 6.495 -1.99 6.495 -3 7 C-2.25 2.25 -2.25 2.25 0 0 Z " fill="#D1CDC2" transform="translate(192,34)"/>
<path d="M0 0 C0.33 0.66 0.66 1.32 1 2 C0.06553465 4.03144641 -0.93224776 6.03533587 -2 8 C-2.99 8 -3.98 8 -5 8 C-3.62845496 5.04590299 -2.01136276 2.55991624 0 0 Z " fill="#E9DCBA" transform="translate(122,51)"/>
<path d="M0 0 C0.33 0 0.66 0 1 0 C1 1.98 1 3.96 1 6 C-0.32 6 -1.64 6 -3 6 C-1.125 1.125 -1.125 1.125 0 0 Z " fill="#C8C0B3" transform="translate(58,40)"/>
<path d="M0 0 C-0.33 0.99 -0.66 1.98 -1 3 C-2.98 3.33 -4.96 3.66 -7 4 C-7 3.34 -7 2.68 -7 2 C-4 0 -4 0 0 0 Z " fill="#B9B194" transform="translate(95,58)"/>
<path d="M0 0 C0.66 0 1.32 0 2 0 C1.67 1.65 1.34 3.3 1 5 C0.01 5.33 -0.98 5.66 -2 6 C-1.125 1.125 -1.125 1.125 0 0 Z " fill="#E2D6C2" transform="translate(210,50)"/>
<path d="M0 0 C0.99 0 1.98 0 3 0 C2.38722388 2.96175123 1.74627478 4.38058783 0 7 C-0.66 7 -1.32 7 -2 7 C-1.34 4.69 -0.68 2.38 0 0 Z " fill="#CFCBC9" transform="translate(124,37)"/>
<path d="M0 0 C0.99 0.33 1.98 0.66 3 1 C1.625 3.5 1.625 3.5 0 6 C-0.66 6 -1.32 6 -2 6 C-1.125 1.125 -1.125 1.125 0 0 Z " fill="#18130D" transform="translate(12,26)"/>
<path d="M0 0 C0.33 0.99 0.66 1.98 1 3 C1.66 3 2.32 3 3 3 C3.66 2.34 4.32 1.68 5 1 C4.67 2.65 4.34 4.3 4 6 C2.68 5.67 1.36 5.34 0 5 C0 3.35 0 1.7 0 0 Z " fill="#B9B4AA" transform="translate(65,50)"/>
<path d="M0 0 C2.2477975 2.05233685 3.0022242 3.00667261 4 6 C2.02 6 0.04 6 -2 6 C-1.34 4.02 -0.68 2.04 0 0 Z " fill="#C8C6B8" transform="translate(24,36)"/>
<path d="M0 0 C0 1.98 0 3.96 0 6 C-0.99 6.33 -1.98 6.66 -3 7 C-3 5.02 -3 3.04 -3 1 C-1 0 -1 0 0 0 Z " fill="#E2DCD7" transform="translate(183,18)"/>
<path d="M0 0 C2.31 0 4.62 0 7 0 C7.33 0.66 7.66 1.32 8 2 C7.34 2.66 6.68 3.32 6 4 C4.02 3.01 2.04 2.02 0 1 C0 0.67 0 0.34 0 0 Z " fill="#BAB19F" transform="translate(43,10)"/>
<path d="M0 0 C1.65 0 3.3 0 5 0 C5.66 1.32 6.32 2.64 7 4 C3.89448334 4 2.64738916 3.4606285 0 2 C0 1.34 0 0.68 0 0 Z " fill="#CBC4A8" transform="translate(153,8)"/>
</svg>
